<mxfile host="app.diagrams.net" modified="2023-04-19T09:42:07.390Z" agent="Mozilla/5.0 (Windows NT 10.0; Win64; x64) AppleWebKit/537.36 (KHTML, like Gecko) Chrome/112.0.0.0 Safari/537.36" version="21.1.9" etag="F-RRZqMx6EGxm8PWiH7L" type="github">
  <diagram name="第 1 页" id="YWGKBsJNkr_up17E1PWP">
    <mxGraphModel>
      <root>
        <mxCell id="0" />
        <mxCell id="1" parent="0" />
      </root>
    </mxGraphModel>
  </diagram>
</mxfile>
